<svg id="visual" viewBox="0 0 960 540" xmlns="http://www.w3.org/2000/svg" xmlns:xlink="http://www.w3.org/1999/xlink" version="1.1"><rect x="0" y="0" width="960" height="540" fill="#001220"></rect><path d="M0 373L22.8 371.3C45.7 369.7 91.3 366.3 137 361.2C182.7 356 228.3 349 274 352.5C319.7 356 365.3 370 411.2 379C457 388 503 392 548.8 392.5C594.7 393 640.3 390 686 384.8C731.7 379.7 777.3 372.3 823 364.3C868.7 356.3 914.3 347.7 937.2 343.3L960 339L960 541L937.2 541C914.3 541 868.7 541 823 541C777.3 541 731.7 541 686 541C640.3 541 594.7 541 548.8 541C503 541 457 541 411.2 541C365.3 541 319.7 541 274 541C228.3 541 182.7 541 137 541C91.3 541 45.7 541 22.8 541L0 541Z" fill="#003664"></path><path d="M0 358L22.8 364.2C45.7 370.3 91.3 382.7 137 384C182.7 385.3 228.3 375.7 274 380.7C319.7 385.7 365.3 405.3 411.2 406.8C457 408.3 503 391.7 548.8 389.2C594.7 386.7 640.3 398.3 686 398.2C731.7 398 777.3 386 823 387.2C868.7 388.3 914.3 402.7 937.2 409.8L960 417L960 541L937.2 541C914.3 541 868.7 541 823 541C777.3 541 731.7 541 686 541C640.3 541 594.7 541 548.8 541C503 541 457 541 411.2 541C365.3 541 319.7 541 274 541C228.3 541 182.7 541 137 541C91.3 541 45.7 541 22.8 541L0 541Z" fill="#002442"></path><path d="M0 404L22.8 412.5C45.7 421 91.3 438 137 442.5C182.7 447 228.3 439 274 431.7C319.7 424.3 365.3 417.7 411.2 422.2C457 426.7 503 442.3 548.8 443.2C594.7 444 640.3 430 686 421C731.7 412 777.3 408 823 408.5C868.7 409 914.3 414 937.2 416.5L960 419L960 541L937.2 541C914.3 541 868.7 541 823 541C777.3 541 731.7 541 686 541C640.3 541 594.7 541 548.8 541C503 541 457 541 411.2 541C365.3 541 319.7 541 274 541C228.3 541 182.7 541 137 541C91.3 541 45.7 541 22.8 541L0 541Z" fill="#001122"></path><path d="M0 475L22.8 470.5C45.7 466 91.3 457 137 450.2C182.7 443.3 228.3 438.7 274 442C319.7 445.3 365.3 456.7 411.2 457.3C457 458 503 448 548.8 447.2C594.7 446.3 640.3 454.7 686 454.3C731.7 454 777.3 445 823 445.8C868.7 446.7 914.3 457.3 937.2 462.7L960 468L960 541L937.2 541C914.3 541 868.7 541 823 541C777.3 541 731.7 541 686 541C640.3 541 594.7 541 548.8 541C503 541 457 541 411.2 541C365.3 541 319.7 541 274 541C228.3 541 182.7 541 137 541C91.3 541 45.7 541 22.8 541L0 541Z" fill="#000f1e"></path><path d="M0 516L22.8 511.8C45.7 507.7 91.3 499.3 137 494.3C182.7 489.3 228.3 487.7 274 487.3C319.7 487 365.3 488 411.2 486.2C457 484.3 503 479.7 548.8 477.2C594.7 474.7 640.3 474.3 686 479.8C731.7 485.3 777.3 496.7 823 499.2C868.7 501.7 914.3 495.3 937.2 492.2L960 489L960 541L937.2 541C914.3 541 868.7 541 823 541C777.3 541 731.7 541 686 541C640.3 541 594.7 541 548.8 541C503 541 457 541 411.2 541C365.3 541 319.7 541 274 541C228.3 541 182.7 541 137 541C91.3 541 45.7 541 22.8 541L0 541Z" fill="#000d1b"></path></svg>